<?xml version="1.0" standalone="no"?>
<!DOCTYPE svg PUBLIC "-//W3C//DTD SVG 20010904//EN"
 "http://www.w3.org/TR/2001/REC-SVG-20010904/DTD/svg10.dtd">
<svg version="1.0" xmlns="http://www.w3.org/2000/svg"
 width="578.000000pt" height="162.000000pt" viewBox="0 0 578.000000 162.000000"
 preserveAspectRatio="xMidYMid meet">

<g transform="translate(0.000000,162.000000) scale(0.100000,-0.100000)"
fill="#000000" stroke="none">
<path d="M1862 1159 c-69 -12 -156 -53 -182 -86 -28 -36 -25 -77 8 -114 49
-55 132 -40 174 30 12 20 35 51 52 69 27 28 36 32 84 32 59 0 88 -11 114 -44
20 -24 23 -84 5 -106 -34 -44 -57 -50 -195 -50 -175 0 -220 -18 -264 -104 -24
-47 -20 -114 9 -155 10 -14 41 -37 68 -51 44 -22 62 -24 175 -24 140 -1 204
15 254 60 49 46 56 79 56 246 0 140 -2 156 -23 193 -25 44 -72 80 -126 95 -56
15 -151 20 -209 9z m108 -396 c0 -82 -48 -132 -125 -133 -99 -1 -152 97 -84
154 28 24 38 26 120 26 l89 0 0 -47z"/>
<path d="M2284 1143 c-22 -24 -25 -35 -22 -73 4 -38 29 -82 167 -288 149 -223
164 -243 188 -240 22 2 59 47 200 238 96 129 181 249 189 267 29 66 -21 113
-120 113 -107 0 -149 -81 -91 -175 45 -73 25 -119 -56 -131 -51 -8 -88 22
-141 113 -78 134 -162 203 -247 203 -33 0 -48 -6 -67 -27z"/>
<path d="M3260 1159 c-68 -12 -153 -52 -180 -86 -28 -36 -26 -84 5 -116 51
-50 121 -38 171 29 68 93 83 104 147 104 54 0 62 -3 93 -34 25 -24 34 -43 34
-66 0 -23 -9 -41 -34 -66 l-34 -34 -135 0 c-73 0 -149 -5 -168 -11 -101 -34
-151 -158 -96 -240 12 -19 44 -45 71 -58 42 -21 63 -24 165 -25 142 -1 205 14
260 60 53 46 61 78 61 249 0 117 -4 147 -20 182 -25 56 -90 97 -174 112 -71
12 -88 12 -166 0z m110 -400 c0 -46 -4 -55 -39 -90 -32 -33 -45 -39 -80 -39
-54 0 -97 22 -116 61 -20 37 -13 61 26 94 28 23 39 25 120 25 l89 0 0 -51z"/>
<path d="M3852 1152 c-64 -23 -109 -64 -123 -112 -6 -20 -9 -119 -7 -239 l3
-204 28 -21 c39 -29 125 -29 164 0 28 21 28 21 31 152 l3 131 -46 20 c-84 37
-116 94 -85 152 25 46 117 64 170 33 55 -33 60 -54 60 -267 l0 -196 33 -23
c42 -30 127 -31 177 -2 l35 20 3 214 c2 213 2 214 -22 251 -18 26 -46 47 -91
70 -60 29 -77 33 -173 36 -86 3 -117 0 -160 -15z"/>
<path d="M4536 1154 c-26 -8 -66 -27 -86 -40 -62 -41 -70 -70 -70 -247 0 -86
5 -168 11 -184 50 -133 290 -184 464 -98 56 27 82 57 91 104 5 22 0 36 -23 61
-58 65 -178 49 -228 -30 -46 -73 -106 -101 -170 -80 -60 20 -65 35 -65 215 0
156 1 162 23 183 48 45 134 50 176 11 11 -10 28 -35 37 -55 38 -81 182 -99
228 -29 38 58 3 134 -79 175 -42 21 -66 25 -155 27 -73 2 -120 -2 -154 -13z"/>
<path d="M5167 1150 c-53 -14 -87 -33 -122 -70 l-30 -31 -3 -171 c-2 -94 -1
-181 2 -194 33 -129 290 -177 468 -88 86 43 107 114 50 166 -57 50 -125 32
-176 -48 -15 -24 -41 -55 -58 -69 -72 -60 -208 -5 -208 85 0 11 15 37 34 58
l34 37 161 5 c141 4 163 7 187 26 80 60 101 160 47 232 -39 52 -86 67 -223 69
-69 1 -142 -2 -163 -7z m269 -80 c77 -38 82 -107 12 -150 -26 -15 -51 -20
-110 -20 l-78 0 0 58 c0 63 16 91 65 116 40 21 60 20 111 -4z"/>
<path d="M1830 500 c0 -5 5 -10 10 -10 6 0 10 5 10 10 0 6 -4 10 -10 10 -5 0
-10 -4 -10 -10z"/>
<path d="M2130 491 c0 -11 -6 -22 -12 -25 -10 -5 -10 -7 0 -12 7 -3 12 -25 12
-55 0 -27 5 -49 10 -49 6 0 10 22 10 49 0 30 5 52 13 55 10 5 10 7 0 12 -7 3
-13 14 -13 25 0 10 -4 19 -10 19 -5 0 -10 -9 -10 -19z"/>
<path d="M3334 495 c-4 -8 -4 -25 -1 -36 3 -12 -1 -32 -9 -45 -29 -44 18 -88
63 -58 18 11 28 13 36 5 19 -19 31 -12 13 8 -13 14 -16 29 -12 53 5 30 5 31
-6 11 -13 -27 -21 -28 -38 -8 -8 9 -8 15 -2 15 17 0 25 39 12 55 -16 19 -49
19 -56 0z m44 -23 c2 -14 -2 -22 -12 -22 -19 0 -29 17 -22 36 8 22 30 12 34
-14z m10 -99 c-15 -19 -52 -12 -56 10 -2 10 2 25 9 33 10 13 15 12 35 -7 19
-17 21 -25 12 -36z"/>
<path d="M4710 431 c0 -47 4 -81 10 -81 6 0 10 31 10 74 0 41 -4 78 -10 81 -6
4 -10 -23 -10 -74z"/>
<path d="M4845 495 c-5 -11 -13 -24 -19 -28 -8 -6 -7 -10 2 -14 7 -3 12 -24
12 -54 0 -27 5 -49 10 -49 6 0 10 22 10 49 0 30 5 51 13 54 9 4 9 8 1 14 -7 4
-14 17 -16 28 l-5 20 -8 -20z"/>
<path d="M5331 494 c0 -11 3 -14 6 -6 3 7 2 16 -1 19 -3 4 -6 -2 -5 -13z"/>
<path d="M1672 458 c-20 -20 -14 -37 18 -53 17 -9 30 -20 30 -26 0 -16 -29
-22 -45 -9 -8 7 -15 8 -15 2 0 -21 28 -34 49 -22 29 15 27 48 -4 62 -25 11
-33 32 -16 43 5 3 12 1 16 -5 10 -16 25 -12 19 5 -7 18 -35 20 -52 3z"/>
<path d="M1830 410 c0 -33 4 -60 10 -60 6 0 10 27 10 60 0 33 -4 60 -10 60 -6
0 -10 -27 -10 -60z"/>
<path d="M1962 458 c-20 -20 -14 -37 18 -53 17 -9 30 -20 30 -26 0 -16 -29
-22 -45 -9 -8 7 -15 8 -15 2 0 -21 28 -34 49 -22 29 15 27 48 -4 62 -25 11
-33 32 -16 43 5 3 12 1 16 -5 10 -16 25 -12 19 5 -7 18 -35 20 -52 3z"/>
<path d="M2277 452 c-30 -33 -19 -88 19 -103 28 -10 74 4 74 23 0 9 -3 9 -12
0 -19 -19 -66 -15 -78 8 -10 19 -8 20 45 20 47 0 55 3 55 18 0 46 -72 69 -103
34z m71 -4 c24 -24 13 -38 -28 -38 -26 0 -40 5 -40 13 0 18 21 37 40 37 9 0
21 -5 28 -12z"/>
<path d="M2480 408 c0 -32 4 -58 10 -58 6 0 10 20 10 44 0 52 18 73 49 56 16
-8 21 -21 22 -58 1 -31 3 -37 6 -17 7 56 13 73 28 79 32 12 45 -5 45 -55 0
-27 5 -49 10 -49 11 0 13 52 4 88 -8 26 -44 38 -72 23 -14 -8 -23 -8 -27 -1
-4 6 -24 9 -46 8 l-39 -3 0 -57z"/>
<path d="M2792 454 c-46 -32 -19 -109 37 -106 63 4 61 1 61 66 0 34 -4 56 -8
49 -5 -8 -13 -9 -22 -3 -22 14 -43 12 -68 -6z m68 -14 c23 -23 24 -33 10 -61
-21 -39 -90 -16 -90 30 0 14 37 51 50 51 6 0 19 -9 30 -20z"/>
<path d="M3007 464 c-16 -16 -6 -51 18 -62 14 -6 25 -18 25 -27 0 -18 -36 -20
-43 -2 -2 6 -8 8 -13 4 -5 -5 -1 -15 10 -23 25 -18 31 -18 50 2 25 25 22 33
-29 69 -16 11 -17 16 -8 26 10 10 16 9 29 -2 15 -12 17 -12 12 1 -5 16 -39 25
-51 14z"/>
<path d="M3707 452 c-30 -33 -19 -88 19 -103 27 -10 74 4 74 22 0 8 -4 8 -14
0 -26 -21 -69 -9 -80 22 -8 23 -6 31 12 50 22 21 24 21 52 5 17 -9 30 -13 30
-8 0 12 -34 30 -58 30 -10 0 -26 -8 -35 -18z"/>
<path d="M3927 452 c-25 -27 -22 -78 5 -96 31 -22 45 -20 73 9 30 29 32 58 5
85 -25 25 -62 26 -83 2z m64 -2 c22 -12 26 -59 7 -78 -7 -7 -21 -12 -33 -12
-43 0 -60 47 -28 82 19 21 27 22 54 8z"/>
<path d="M4131 405 l2 -60 6 48 c13 89 66 90 80 1 l9 -49 1 47 c1 58 -17 79
-65 75 l-34 -2 1 -60z"/>
<path d="M4341 451 c-12 -21 -9 -26 34 -56 16 -11 18 -16 7 -27 -10 -10 -16
-10 -32 0 -11 7 -20 8 -20 2 0 -17 34 -29 53 -19 25 15 21 48 -8 61 -26 12
-33 32 -15 43 6 4 18 1 27 -7 14 -11 16 -11 11 2 -7 23 -45 24 -57 1z"/>
<path d="M4506 462 c-4 -7 -5 -33 -1 -58 7 -51 28 -67 74 -58 30 6 31 8 31 60
0 70 -18 80 -22 12 -3 -52 -4 -53 -33 -53 -29 0 -30 2 -35 55 -3 35 -8 50 -14
42z"/>
<path d="M4986 448 c-28 -39 -20 -75 21 -97 59 -31 115 57 65 102 -26 24 -68
21 -86 -5z m79 -8 c25 -28 10 -74 -25 -78 -50 -5 -75 43 -41 77 26 26 43 26
66 1z"/>
<path d="M5208 462 c-15 -3 -18 -14 -18 -58 0 -30 5 -54 10 -54 6 0 10 19 10
43 0 24 5 48 12 55 14 14 9 20 -14 14z"/>
<path d="M5333 410 c0 -36 2 -50 4 -32 2 17 2 47 0 65 -2 17 -4 3 -4 -33z"/>
<path d="M5467 452 c-21 -23 -22 -75 -2 -92 14 -11 31 -13 83 -8 20 2 22 8 22
58 l0 55 -44 2 c-31 2 -47 -2 -59 -15z m65 -4 c24 -20 28 -44 12 -67 -27 -37
-84 -22 -84 23 0 22 27 56 45 56 6 0 18 -6 27 -12z"/>
</g>
</svg>
